HIERARCHY
ROOT Hips
{
	OFFSET 49.496101 -8.353525 93.081001
	CHANNELS 6 Xposition Yposition Zposition Xrotation Yrotation Zrotation
	JOINT spine
	{
		OFFSET 0.000000 -0.448574 7.800591
		CHANNELS 3 Xrotation Yrotation Zrotation
		JOINT spine1
		{
			OFFSET 0.000000 -0.000002 10.136398
			CHANNELS 3 Xrotation Yrotation Zrotation
			JOINT spine2
			{
				OFFSET 0.000000 -0.000002 9.712509
				CHANNELS 3 Xrotation Yrotation Zrotation
				JOINT Neck
				{
					OFFSET 0.000000 -1.188874 24.936096
					CHANNELS 3 Xrotation Yrotation Zrotation
					JOINT Head
					{
						OFFSET 0.000000 -0.000001 7.533844
						CHANNELS 3 Xrotation Yrotation Zrotation
						End Site
						{
							OFFSET 0.000000 6.014017 18.236099
						}
					}
				}
				JOINT RightShoulder
				{
					OFFSET -4.089649 0.569456 10.488800
					CHANNELS 3 Xrotation Yrotation Zrotation
					JOINT RightArm
					{
						OFFSET 0.000000 -0.000003 13.757004
						CHANNELS 3 Xrotation Yrotation Zrotation
						JOINT RightArmRoll
						{
							OFFSET 0.000000 -0.000001 6.944778
							CHANNELS 3 Xrotation Yrotation Zrotation
							JOINT RightForeArm
							{
								OFFSET 0.000000 -0.000003 20.227692
								CHANNELS 3 Xrotation Yrotation Zrotation
								JOINT RightForeArmRoll
								{
									OFFSET 0.000000 -0.000002 7.793121
									CHANNELS 3 Xrotation Yrotation Zrotation
									JOINT RightHand
									{
										OFFSET 0.000000 -0.000002 15.639099
										CHANNELS 3 Xrotation Yrotation Zrotation
										End Site
										{
											OFFSET 0.000000 0.000000 0.100006
										}
									}
								}
							}
						}
					}
				}
				JOINT LeftShoulder
				{
					OFFSET 4.089649 0.569456 10.488800
					CHANNELS 3 Xrotation Yrotation Zrotation
					JOINT LeftArm
					{
						OFFSET 0.000000 -0.000003 13.757004
						CHANNELS 3 Xrotation Yrotation Zrotation
						JOINT LeftArmRoll
						{
							OFFSET 0.000000 -0.000001 6.944778
							CHANNELS 3 Xrotation Yrotation Zrotation
							JOINT LeftForeArm
							{
								OFFSET 0.000000 -0.000003 20.227692
								CHANNELS 3 Xrotation Yrotation Zrotation
								JOINT LeftForeArmRoll
								{
									OFFSET 0.000000 -0.000002 7.793121
									CHANNELS 3 Xrotation Yrotation Zrotation
									JOINT LeftHand
									{
										OFFSET 0.000000 -0.000002 15.639099
										CHANNELS 3 Xrotation Yrotation Zrotation
										End Site
										{
											OFFSET 0.000000 0.000000 0.100006
										}
									}
								}
							}
						}
					}
				}
			}
		}
	}
	JOINT RightUpLeg
	{
		OFFSET -6.914162 1.063581 -1.267883
		CHANNELS 3 Xrotation Yrotation Zrotation
		JOINT RightUpLegRoll
		{
			OFFSET 0.000000 -0.000003 18.337799
			CHANNELS 3 Xrotation Yrotation Zrotation
			JOINT RightLeg
			{
				OFFSET 0.000000 0.000004 -22.708504
				CHANNELS 3 Xrotation Yrotation Zrotation
				JOINT RightLegRoll
				{
					OFFSET 0.000000 -0.000004 22.782799
					CHANNELS 3 Xrotation Yrotation Zrotation
					JOINT RightFoot
					{
						OFFSET 0.000000 -0.000003 18.962898
						CHANNELS 3 Xrotation Yrotation Zrotation
						JOINT RightToeBase
						{
							OFFSET 0.000000 -0.000003 15.852005
							CHANNELS 3 Xrotation Yrotation Zrotation
							End Site
							{
								OFFSET 0.006718 0.884892 7.677017
							}
						}
					}
				}
			}
		}
	}
	JOINT LeftUpLeg
	{
		OFFSET 6.914162 1.063581 -1.267883
		CHANNELS 3 Xrotation Yrotation Zrotation
		JOINT LeftUpLegRoll
		{
			OFFSET 0.000000 -0.000003 18.337898
			CHANNELS 3 Xrotation Yrotation Zrotation
			JOINT LeftLeg
			{
				OFFSET 0.000000 -0.000003 22.708405
				CHANNELS 3 Xrotation Yrotation Zrotation
				JOINT LeftLegRoll
				{
					OFFSET 0.000000 -0.000004 22.993393
					CHANNELS 3 Xrotation Yrotation Zrotation
					JOINT LeftFoot
					{
						OFFSET 0.000000 -0.000003 18.752197
						CHANNELS 3 Xrotation Yrotation Zrotation
						JOINT LeftToeBase
						{
							OFFSET 0.000000 -0.000002 15.852005
							CHANNELS 3 Xrotation Yrotation Zrotation
							End Site
							{
								OFFSET -0.030113 0.884892 7.677002
							}
						}
					}
				}
			}
		}
	}
}
MOTION
Frames: 9
Frame Time: 0.041667
47.100601 -2.882371 91.929085 -7.489566 1.896751 -1.779477 0.323993 -0.349257 0.402568 4.641918 -0.690822 0.811878 6.286974 -0.680960 0.820091 15.907207 -1.748937 1.423139 -14.137905 2.723747 1.502749 -32.187895 -82.274464 -36.161470 48.745663 -78.586599 56.468968 0.000000 0.000004 0.000002 21.230209 -14.968908 2.208878 -0.000006 0.000005 -2.999990 -5.000302 -7.998782 0.000207 4.520916 65.139261 -4.339452 -13.311320 108.158006 1.298177 0.000001 -0.000000 0.000009 17.370843 4.718814 0.445766 0.000003 -0.000001 3.004570 -5.000235 7.999459 -0.000079 -2.297690 172.979595 -2.348829 -179.999991 0.000005 -1.876999 155.926621 -2.913041 -1.088654 -0.000001 0.000000 1.003650 79.535716 8.596699 -4.842708 25.458982 -7.355612 0.001366 -14.004266 170.696782 4.529679 -0.000003 -0.000006 -0.665036 -11.324433 2.591243 0.578047 -0.000003 0.000002 -0.124448 64.935920 -4.196072 -8.685913 25.467069 7.355621 -0.000395 
47.100800 -2.890964 91.929482 -7.482658 1.897346 -1.785802 0.322634 -0.349249 0.402619 4.640018 -0.691389 0.811456 6.285087 -0.681535 0.819672 15.896108 -1.726777 1.422353 -14.148147 2.709708 1.501676 -32.180781 -82.272593 -36.154193 48.641305 -78.589338 56.484582 0.000000 0.000004 -0.000000 21.084953 -14.942333 2.180431 -0.000005 0.000005 -2.999990 -5.000300 -7.998782 0.000207 4.528704 65.152450 -4.346355 -13.189169 108.110666 1.129107 0.000001 0.000000 0.000010 17.360543 4.708649 0.447290 0.000002 -0.000000 3.004570 -5.000237 7.999459 -0.000080 -2.299629 172.980606 -2.347882 -179.999991 0.000005 -1.876999 155.930610 -2.914055 -1.088863 -0.000001 0.000001 1.004360 79.536412 8.597392 -4.843299 25.458979 -7.355612 0.001366 -14.003211 170.692848 4.526894 -0.000006 -0.000005 -0.665036 -11.313421 2.591156 0.577907 -0.000002 0.000002 -0.124062 64.925005 -4.195127 -8.687024 25.467069 7.355622 -0.000395 
47.097095 -2.896215 91.931793 -7.475613 1.897932 -1.792011 0.321257 -0.349235 0.402641 4.638119 -0.691966 0.810940 6.283176 -0.682121 0.819156 15.884611 -1.704059 1.421588 -14.158384 2.695030 1.500594 -32.173364 -82.270633 -36.146614 48.540846 -78.591613 56.508979 0.000000 0.000004 0.000001 20.936225 -14.913843 2.151046 -0.000007 0.000004 -2.999991 -5.000303 -7.998782 0.000207 4.535819 65.165865 -4.352491 -13.063771 108.065259 0.955941 0.000000 -0.000000 0.000009 17.351436 4.698031 0.448842 0.000001 -0.000000 3.004572 -5.000238 7.999460 -0.000079 -2.301754 172.982614 -2.346942 -179.999991 0.000005 -1.876999 155.934667 -2.915969 -1.088472 -0.000001 -0.000000 1.005110 79.536795 8.598172 -4.843755 25.458984 -7.355613 0.001366 -14.001949 170.688900 4.524136 -0.000003 -0.000006 -0.665037 -11.301505 2.591038 0.577730 -0.000002 0.000001 -0.123682 64.913899 -4.194158 -8.688155 25.467066 7.355621 -0.000395 
47.102600 -2.900260 91.937996 -7.468471 1.898508 -1.798127 0.319861 -0.349221 0.402645 4.636209 -0.692550 0.810359 6.281267 -0.682716 0.818576 15.872911 -1.680956 1.420846 -14.168421 2.679890 1.499493 -32.165574 -82.268570 -36.138650 48.443004 -78.593566 56.539421 -0.000000 0.000003 -0.000000 20.784932 -14.883921 2.120985 -0.000005 0.000005 -2.999991 -5.000303 -7.998782 0.000208 4.542448 65.179300 -4.358067 -12.937597 108.018882 0.781651 0.000001 0.000000 0.000009 17.343329 4.687101 0.450401 0.000002 -0.000000 3.004570 -5.000237 7.999460 -0.000080 -2.304023 172.984608 -2.345975 -179.999991 0.000005 -1.877000 155.938956 -2.916977 -1.088660 -0.000001 0.000000 1.005880 79.537020 8.598922 -4.844101 25.458980 -7.355612 0.001366 -14.000550 170.685922 4.521166 -0.000005 -0.000004 -0.665036 -11.288992 2.590895 0.577530 -0.000004 0.000001 -0.123305 64.902582 -4.193180 -8.689173 25.467067 7.355621 -0.000395 
47.100597 -2.909030 91.939087 -7.461270 1.899075 -1.804185 0.318460 -0.349203 0.402636 4.634291 -0.693138 0.809739 6.279357 -0.683314 0.817957 15.860912 -1.657622 1.420110 -14.178551 2.664498 1.498389 -32.157446 -82.266439 -36.130345 48.346152 -78.595267 56.572787 -0.000000 0.000005 0.000001 20.632361 -14.853187 2.090683 -0.000006 0.000005 -2.999990 -5.000300 -7.998782 0.000208 4.548819 65.192735 -4.363345 -12.809649 107.973536 0.605141 0.000001 0.000000 0.000009 17.335618 4.675988 0.451968 -0.000000 0.000000 3.004571 -5.000239 7.999460 -0.000079 -2.306366 172.985633 -2.344949 -179.999991 0.000005 -1.876999 155.943314 -2.918912 -1.088258 -0.000001 -0.000001 1.006660 79.537136 8.599699 -4.844538 25.458977 -7.355612 0.001366 -13.999091 170.681988 4.518442 -0.000004 -0.000005 -0.665036 -11.276279 2.590745 0.577324 -0.000003 0.000001 -0.122930 64.891162 -4.192206 -8.690333 25.467067 7.355622 -0.000395 
47.099098 -2.909605 91.938889 -7.454069 1.899642 -1.810244 0.317059 -0.349186 0.402625 4.632381 -0.693727 0.809110 6.277438 -0.683914 0.817328 15.849013 -1.634226 1.419390 -14.188581 2.649040 1.497275 -32.149321 -82.264308 -36.122043 48.250178 -78.597029 56.607553 0.000000 0.000004 0.000001 20.479436 -14.822306 2.060471 -0.000007 0.000005 -2.999991 -5.000300 -7.998782 0.000208 4.555125 65.206163 -4.368549 -12.681668 107.927289 0.428606 0.000001 0.000001 0.000010 17.328009 4.664834 0.453545 0.000002 -0.000000 3.004571 -5.000237 7.999459 -0.000080 -2.308732 172.987641 -2.343969 -179.999991 0.000005 -1.876999 155.947603 -2.919919 -1.088446 -0.000000 -0.000000 1.007450 79.537246 8.600462 -4.844876 25.458979 -7.355612 0.001366 -13.997527 170.678040 4.515716 -0.000003 -0.000006 -0.665036 -11.263362 2.590597 0.577110 -0.000003 0.000002 -0.122556 64.879742 -4.191220 -8.691405 25.467066 7.355620 -0.000395 
47.099098 -2.893861 91.947189 -7.446885 1.900208 -1.816322 0.315656 -0.349169 0.402621 4.630461 -0.694313 0.808499 6.275530 -0.684512 0.816719 15.837125 -1.610954 1.418677 -14.198709 2.633709 1.496161 -32.141245 -82.262156 -36.113792 48.153486 -78.598914 56.640604 0.000000 0.000004 0.000001 20.327218 -14.791663 2.030613 -0.000006 0.000005 -2.999991 -5.000298 -7.998782 0.000207 4.561580 65.219591 -4.373925 -12.552700 107.882121 0.251099 0.000000 -0.000000 0.000009 17.320195 4.653767 0.455098 0.000001 -0.000000 3.004571 -5.000238 7.999460 -0.000079 -2.311067 172.988638 -2.342944 -179.999991 0.000005 -1.876999 155.951852 -2.921838 -1.089040 -0.000001 -0.000001 1.008230 79.537355 8.601238 -4.845215 25.458980 -7.355612 0.001366 -13.996130 170.675062 4.512765 -0.000004 -0.000006 -0.665036 -11.250747 2.590445 0.576906 -0.000003 0.000002 -0.122181 64.868328 -4.190243 -8.692443 25.467067 7.355622 -0.000395 
47.088299 -2.896723 91.944595 -7.439766 1.900775 -1.822458 0.314266 -0.349154 0.402629 4.628552 -0.694895 0.807936 6.273621 -0.685104 0.816157 15.825434 -1.587955 1.417965 -14.208850 2.618710 1.495046 -32.133407 -82.260107 -36.105780 48.054817 -78.601031 56.669229 0.000000 0.000004 0.000001 20.176927 -14.761987 2.001551 -0.000007 0.000005 -2.999991 -5.000302 -7.998782 0.000208 4.568386 65.232924 -4.379696 -12.423836 107.837083 0.074036 0.000001 0.000000 0.000010 17.311794 4.642927 0.456641 0.000001 -0.000001 3.004571 -5.000236 7.999460 -0.000079 -2.313296 172.990660 -2.341983 -179.999991 0.000005 -1.876999 155.956127 -2.923771 -1.088643 -0.000001 0.000000 1.008990 79.537608 8.602031 -4.845663 25.458980 -7.355613 0.001366 -13.994772 170.671128 4.510030 -0.000002 -0.000005 -0.665037 -11.238433 2.590311 0.576715 -0.000004 0.000001 -0.121803 64.857120 -4.189262 -8.693513 25.467067 7.355620 -0.000395 
47.083603 -2.917930 91.939293 -7.432767 1.901350 -1.828710 0.312895 -0.349142 0.402660 4.626651 -0.695469 0.807449 6.271720 -0.685686 0.815670 15.814058 -1.565403 1.417252 -14.218997 2.604224 1.493929 -32.126006 -82.258147 -36.098226 47.953706 -78.603634 56.691513 -0.000000 0.000003 0.000001 20.029431 -14.733695 1.973461 -0.000006 0.000006 -2.999991 -5.000300 -7.998781 0.000207 4.575741 65.246215 -4.386101 -12.296109 107.791211 -0.101447 0.000001 0.000000 0.000008 17.302293 4.632446 0.458167 0.000000 -0.000000 3.004572 -5.000238 7.999459 -0.000080 -2.315362 172.992668 -2.341051 -179.999991 0.000005 -1.876999 155.960198 -2.924775 -1.088841 -0.000001 0.000000 1.009730 79.538079 8.602762 -4.846128 25.458982 -7.355613 0.001366 -13.993511 170.667207 4.507247 -0.000002 -0.000005 -0.665036 -11.226723 2.590210 0.576547 -0.000003 0.000001 -0.121421 64.846110 -4.188289 -8.694578 25.467066 7.355621 -0.000395 
